<?xml version="1.0" standalone="no"?>
<!DOCTYPE svg PUBLIC "-//W3C//DTD SVG 20010904//EN"
 "http://www.w3.org/TR/2001/REC-SVG-20010904/DTD/svg10.dtd">
<svg version="1.0" xmlns="http://www.w3.org/2000/svg"
 width="300.000000pt" height="300.000000pt" viewBox="0 0 300.000000 300.000000"
 preserveAspectRatio="xMidYMid meet">
<metadata>
Created by potrace 1.11, written by Peter Selinger 2001-2013
</metadata>
<g transform="translate(0.000000,300.000000) scale(0.100000,-0.100000)"
fill="#000000" stroke="none">
<path d="M1283 2725 c-16 -12 -16 -17 -4 -57 71 -235 76 -308 76 -1143 0 -726
-4 -795 -46 -881 -30 -63 -49 -67 -185 -43 -64 11 -118 18 -120 16 -12 -12 17
-44 109 -120 114 -94 172 -153 213 -218 52 -82 72 -83 118 -6 82 142 106 330
82 664 -9 123 -19 336 -22 475 l-6 253 44 -45 c23 -25 144 -160 268 -300 310
-352 400 -441 469 -463 61 -19 136 -21 248 -7 105 14 287 50 303 60 31 19 -8
40 -182 97 -257 84 -427 172 -642 331 -149 110 -332 277 -335 304 -1 12 232
214 389 339 80 63 204 146 242 162 61 26 67 64 18 116 -28 29 -146 106 -203
131 -72 33 -74 31 -79 -64 -4 -70 -10 -95 -37 -148 -36 -71 -136 -200 -290
-373 l-104 -117 -59 59 -60 58 5 265 c6 267 17 371 52 454 10 24 12 43 6 59
-18 48 -125 121 -213 145 -28 8 -41 7 -55 -3z"/>
<path d="M964 1921 c-70 -52 -232 -92 -429 -106 -143 -11 -152 -19 -86 -78 79
-71 137 -72 337 -7 91 29 139 40 173 38 l46 -3 3 -43 c4 -49 -21 -130 -83
-273 -108 -250 -282 -475 -516 -671 -60 -49 -109 -95 -109 -100 0 -33 212 65
328 152 205 152 397 411 503 677 41 104 106 233 130 259 48 51 1 112 -121 159
-87 33 -126 32 -176 -4z"/>
</g>
</svg>
